#format: frame checksums
#version: 2
#hash: MD5
#tb 0: 1/8000
#media_type 0: audio
#codec_id 0: pcm_s16le
#sample_rate 0: 8000
#channel_layout_name 0: mono
#stream#, dts,        pts, duration,     size, hash
0,          0,          0,      512,     1024, e462a78273c42c955f4a8d0764504527
0,        512,        512,      512,     1024, ba393ab5be48c94532afdc8ed87b3283
0,       1024,       1024,      512,     1024, 171b2d9d2d65199d454d93b990c25569
0,       1536,       1536,      512,     1024, 87a31ad0a9fdd539924b89727887076b
0,       2048,       2048,      512,     1024, 395ac07a8bdfce0c34a82037a791fdb6
0,       2560,       2560,      512,     1024, cb9ffa454b026c8af6752915469addf1
0,       3072,       3072,      512,     1024, 88155f5c52947fa0a6b41a5d90e7fcce
0,       3584,       3584,      512,     1024, ff2635e9dc7a20b05670999f127bc07a
0,       4096,       4096,      512,     1024, 03a8996fe239611a45a8b64fd1f5d882
0,       4608,       4608,      512,     1024, d6b10d56939d34e62f1971bc0c17c3c4
0,       5120,       5120,      512,     1024, 04dc70271ae47a9df5ef11259a2ec314
0,       5632,       5632,      512,     1024, 61f932baa9284cd07e72d63bb5a844a7
0,       6144,       6144,      512,     1024, 55c33714127a668e4fa5e275ff3023b5
0,       6656,       6656,      512,     1024, 02298949b93e5eb30ba9eaa76bd2299e
0,       7168,       7168,      512,     1024, dd528441ed14ca22bbed83db99fd5a23
0,       7680,       7680,      512,     1024, 83663bf9a55778b4eb74cc30d0963aa0
0,       8192,       8192,      512,     1024, be7e4fc320362f7aad761ce3f7fe0051
0,       8704,       8704,      512,     1024, 0e0b6617db79c1abcb8736370c3f35cb
0,       9216,       9216,      512,     1024, 7a60a2f7d5fa039f32b8f9cfd37174a4
0,       9728,       9728,      512,     1024, 8d969ae43be3324dfd7e532526a2e532
0,      10240,      10240,      512,     1024, faec94304ef2b068c3646fb4050df32d
0,      10752,      10752,      512,     1024, dd5cb976f0cb4d0586300eb278afe7df
0,      11264,      11264,      512,     1024, 9ef158e354b255bfbe9ae699deeb6cd2
0,      11776,      11776,      512,     1024, 78f83960bca8ef1d2dff318337a43acd
0,      12288,      12288,      512,     1024, d300c855cc71548fb3504632c953e5a8
0,      12800,      12800,      512,     1024, 362a91b8c7c84520fa5a032fb5d655da
0,      13312,      13312,      512,     1024, ecdda6aa40d4e74b95f651b353fbe0c9
0,      13824,      13824,      512,     1024, 97480f331929b7499bb2034e102db5e8
0,      14336,      14336,      512,     1024, db1f24dbf0b4e6f37e7454248a6cb458
0,      14848,      14848,      512,     1024, dd134658d79dcbc0e3c90d35217a478c
0,      15360,      15360,      512,     1024, eeebe168cb9284e616e94465a42b4b70
0,      15872,      15872,      512,     1024, d3bc5f37e4406aa35fca099ce469357e
0,      16384,      16384,      512,     1024, ac586b76406bdaeb2de1da67f9b43b96
0,      16896,      16896,      512,     1024, 4e38638c1c18bce1d5bd50d5a899ad47
0,      17408,      17408,      512,     1024, 4ccb0e5466069d31e69d0eca1bfd7770
0,      17920,      17920,      512,     1024, 5460ce0371a18bfe04d07e97b1505165
0,      18432,      18432,      512,     1024, afcc80a0a55751444989772cf03c00f6
0,      18944,      18944,      512,     1024, 82d91887dad6dd833af2e43cbea50fca
0,      19456,      19456,      512,     1024, eec16553e6390cde2e8887eba380c5dc
0,      19968,      19968,      512,     1024, da4d253b64d3af1d023609be94c6a1fb
0,      20480,      20480,      512,     1024, b4bdbccf49d28f3a0941d51c70ec928f
0,      20992,      20992,      512,     1024, f996421690602ad42ed2606bc7e19186
0,      21504,      21504,      512,     1024, 77c9d3e35234baf68dea6f22234779eb
0,      22016,      22016,      512,     1024, fc7a022367f119ccd647430f3693243f
0,      22528,      22528,      512,     1024, fbb4f54f9a797d98070b47e3efc80d2a
0,      23040,      23040,      512,     1024, b2ab75d5dc9c21eb68c7fc0262643ac2
0,      23552,      23552,      512,     1024, 3bcb8448769d665ef9038a39ee4a1ed8
0,      24064,      24064,      512,     1024, 055ad0df8165f2e6195ea65f6e8a286a
0,      24576,      24576,      512,     1024, ac6748536e6e72ddac23ae33d7c75ea0
0,      25088,      25088,      512,     1024, c354c93bf03cd6b51c7c1d1cac38aa0b
0,      25600,      25600,      512,     1024, 8a5240d53b27f1f25e693396825e7a62
0,      26112,      26112,      512,     1024, fcaa5da746908c44d7bdc11cc207e7b1
0,      26624,      26624,      512,     1024, 5c763e916d082e322a218a46fed8d97a
0,      27136,      27136,      512,     1024, 929e311cde16d8dca809f7f2c8291624
0,      27648,      27648,      512,     1024, b227c362d210386e507609edd2aece76
0,      28160,      28160,      512,     1024, cc245fb14472eca204be5424b19f877b
0,      28672,      28672,      512,     1024, 8dc27fb25d2966b0afa9927f43304bdc
0,      29184,      29184,      512,     1024, 779a8e9d3e0016a62e47be0d43b9b919
0,      29696,      29696,      512,     1024, 69cf5779c7c4d3a5fb752f9d362e923a
0,      30208,      30208,      512,     1024, 1e25170a7059435b2e99292e3327062a
0,      30720,      30720,      512,     1024, 726ca49e2452f29e7fd3c10e7e5b74ea
0,      31232,      31232,      512,     1024, 28b54a82590645db94f2283c6e82bfc9
0,      31744,      31744,      512,     1024, 41eff313ad24559ef08f7738adac60b3
0,      32256,      32256,      512,     1024, 374706cf8beab83c2ec7d562bc2a4087
0,      32768,      32768,      512,     1024, 76c3bd97ff43f123962724bf60fd9e94
0,      33280,      33280,      512,     1024, 9951f8ddc0c3deae2d87d2d3e9d25082
0,      33792,      33792,      512,     1024, e2402cfc3b6d9dbe922bbc28b5add776
0,      34304,      34304,      512,     1024, 68e1b60ab9f22c51b3983c77917f811a
0,      34816,      34816,      512,     1024, 7bbad0851f35458718255a91fb069fd0
0,      35328,      35328,      512,     1024, a7f31c52e1937df0f20ca6ee2c743c31
0,      35840,      35840,      512,     1024, 1cd1c915fb0f587433631d55d8e0fdc6
0,      36352,      36352,      512,     1024, 93a932f376ee5637e0fd71faf0a7eb73
0,      36864,      36864,      512,     1024, 560411042955f0bcefe7f0ec8d2a2da9
0,      37376,      37376,      512,     1024, bdab5b8cecc1ff7f61e6fd9c9312006e
0,      37888,      37888,      512,     1024, fefbe79648fae7aa569ef25c424bf08a
0,      38400,      38400,      512,     1024, 18d6ff61ea03c8657e990e92d85a90c7
0,      38912,      38912,      512,     1024, e2b0c109583da836d0dafcf1a1dcceb2
0,      39424,      39424,      512,     1024, c14386f47a4059ae2af6e119229575af
0,      39936,      39936,      512,     1024, 769694900bd69b3a33ec5f51ae08762a
0,      40448,      40448,      512,     1024, a822a51963cdb5d8ddedeb865db6ceb9
0,      40960,      40960,      512,     1024, 35a85df3d6cf7ae305b7653d46ce044b
0,      41472,      41472,      512,     1024, 61176c6dfe177bab444ed94a88767158
0,      41984,      41984,      512,     1024, 5585e560a3440bb0d265fe0d7db8e02d
0,      42496,      42496,      512,     1024, 4d4bc0401e9ed6c988b81c94ddcc8e5f
0,      43008,      43008,      512,     1024, 3f2c7de6a995cf66232178ac68e9512c
0,      43520,      43520,      512,     1024, 72d5cbd6702b152f125296300f207e55
0,      44032,      44032,      512,     1024, 016bc6d70e84c1c5d8349a799ee75007
0,      44544,      44544,      512,     1024, 0133d1cee2f626e9506e96d9d6e17681
0,      45056,      45056,      512,     1024, dd8a9f7e42479d057241ded25a1bbb65
0,      45568,      45568,      512,     1024, 797999a8a13cd82969f182afea0abd12
0,      46080,      46080,      512,     1024, e9bc67da89b93fca6b9ed9be6016c1d5
0,      46592,      46592,      512,     1024, 2431cea96bc5410d59b7ff8ccb93c211
0,      47104,      47104,      512,     1024, b2de5f02c365584f4757c557993b7fcb
0,      47616,      47616,      384,      768, 82f8baf07ca30dd6d5cc84dd29030ab4
